<?xml version="1.0" encoding="utf-8"?>
<!-- Generator: Adobe Illustrator 24.1.3, SVG Export Plug-In . SVG Version: 6.00 Build 0)  -->
<svg version="1.1" id="Layer_1" xmlns="http://www.w3.org/2000/svg" xmlns:xlink="http://www.w3.org/1999/xlink" x="0px" y="0px"
	 viewBox="0 0 595.3 595.3" style="enable-background:new 0 0 595.3 595.3;" xml:space="preserve">
<style type="text/css">
	.st0{fill:none;}
	.st1{font-family:'Impact';}
	.st2{font-size:40px;}
	.st3{font-family:'Helvetica-Light';}
	.st4{font-size:18px;}
	.st5{font-size:15px;}
	.st6{font-size:20px;}
</style>
<g id="IMG">
	
		<image style="overflow:visible;enable-background:new    ;" width="3383" height="2256" xlink:href="../../../image/delivery_guy.png"  transform="matrix(0.1247 0 0 0.1247 28 25)">
	</image>
</g>
<g id="Layer_4">
</g>
<g id="Layer_3">
	<rect x="342" y="66" class="st0" width="205" height="94"/>
	<text transform="matrix(1 0 0 1 342 97.6396)" class="st1 st2">Tom</text>
	<text transform="matrix(1 0 0 1 342 119.2396)" class="st3 st4">Delivery Guy</text>
	<rect x="342" y="152.8" class="st0" width="227" height="387"/>
	<text transform="matrix(1 0 0 1 342 165.7933)" class="st3 st4">47 yo  male</text>
	<text transform="matrix(1 0 0 1 342 205.3933)" class="st3 st5">Tom is the newest member of the </text>
	<text transform="matrix(1 0 0 1 342 223.3933)" class="st3 st5">family bakery and just moved to </text>
	<text transform="matrix(1 0 0 1 342 241.3933)" class="st3 st5">the city together with his girlfriend </text>
	<text transform="matrix(1 0 0 1 342 259.3933)" class="st3 st5">and four cats. Before moving </text>
	<text transform="matrix(1 0 0 1 342 277.3933)" class="st3 st5">here he worked at different com</text>
	<text transform="matrix(1 0 0 1 555.4 277.3933)" class="st3 st5">-</text>
	<text transform="matrix(1 0 0 1 342 295.3933)" class="st3 st5">panies delivering a wide variety </text>
	<text transform="matrix(1 0 0 1 342 313.3933)" class="st3 st5">of goods but he never could stay </text>
	<text transform="matrix(1 0 0 1 342 331.3933)" class="st3 st5">at one job for long. His hopes are </text>
	<text transform="matrix(1 0 0 1 342 349.3933)" class="st3 st5">high that he has found the perfect </text>
	<text transform="matrix(1 0 0 1 342 367.3933)" class="st3 st5">spot for him. Between deliveries </text>
	<text transform="matrix(1 0 0 1 342 385.3933)" class="st3 st5">you can sometimes spot him </text>
	<text transform="matrix(1 0 0 1 342 403.3933)" class="st3 st5">reading one of his books in the </text>
	<text transform="matrix(1 0 0 1 342 421.3933)" class="st3 st5">car. His coworkers joke that he </text>
	<text transform="matrix(1 0 0 1 342 439.3933)" class="st3 st5">knows everything. They even </text>
	<text transform="matrix(1 0 0 1 342 457.3933)" class="st3 st5">spotted him reading a book </text>
	<text transform="matrix(1 0 0 1 342 475.3933)" class="st3 st5">about lock picking a few weeks </text>
	<text transform="matrix(1 0 0 1 342 493.3933)" class="st3 st5">ago. As if such a peaceful person </text>
	<text transform="matrix(1 0 0 1 342 511.3933)" class="st3 st5">ever came in need to pick a </text>
	<text transform="matrix(1 0 0 1 342 529.3933)" class="st3 st5">lock...</text>
	<rect x="31" y="368" class="st0" width="132" height="128"/>
	<text transform="matrix(1 0 0 1 31 380.96)" class="st3 st4">Intelligence</text>
	<text transform="matrix(1 0 0 1 31 416.96)" class="st3 st4">Charisma</text>
	<text transform="matrix(1 0 0 1 31 452.96)" class="st3 st4">Athletics </text>
	<text transform="matrix(1 0 0 1 31 488.96)" class="st3 st4">Nerd </text>
	<rect x="97" y="368" class="st0" width="83.5" height="128"/>
	<text transform="matrix(1 0 0 1 170.4922 380.96)" class="st3 st4">3</text>
	<text transform="matrix(1 0 0 1 163 416.96)" class="st3 st4">-2</text>
	<text transform="matrix(1 0 0 1 170.4922 452.96)" class="st3 st4">1</text>
	<text transform="matrix(1 0 0 1 170.4922 488.96)" class="st3 st4">3</text>
	<rect x="31" y="319" class="st0" width="272" height="37"/>
	<text transform="matrix(1 0 0 1 31 334.8193)" class="st1 st6">Stats</text>
	<rect x="31" y="520" class="st0" width="243" height="22.5"/>
	<text transform="matrix(1 0 0 1 31 535.8193)" class="st1 st6">Special Trait         </text>
	<text transform="matrix(1 0 0 1 166.2 535.8193)" class="st3 st4">Knowledge</text>
</g>
</svg>
