<?xml version="1.0" encoding="utf-8"?>
<!-- Generator: Adobe Illustrator 21.1.0, SVG Export Plug-In . SVG Version: 6.00 Build 0)  -->
<svg version="1.1" xmlns="http://www.w3.org/2000/svg" xmlns:xlink="http://www.w3.org/1999/xlink" x="0px" y="0px"
	 viewBox="0 0 595.3 595.3" style="enable-background:new 0 0 595.3 595.3;" xml:space="preserve">
<style type="text/css">
	.st0{fill:none;}
	.st1{font-family:'Impact';}
	.st2{font-size:40px;}
	.st3{font-family:'Helvetica-Light';}
	.st4{font-size:18px;}
	.st5{font-size:15px;}
	.st6{font-size:20px;}
</style>
<g id="IMG">
	
		<image style="overflow:visible;" width="3222" height="4834" xlink:href="../../img/baker.png"  transform="matrix(0.1229 0 0 0.1229 -35.959 -78)">
	</image>
</g>
<g id="Layer_4">
</g>
<g id="Layer_3">
	<rect x="342" y="66" class="st0" width="205" height="94"/>
	<text transform="matrix(1 0 0 1 342 97.6396)"><tspan x="0" y="0" class="st1 st2">Kelly</tspan><tspan x="0" y="21.6" class="st3 st4">Baker</tspan></text>
	<rect x="342" y="152.8" class="st0" width="227" height="387"/>
	<text transform="matrix(1 0 0 1 342 165.7933)"><tspan x="0" y="0" class="st3 st4">28 yo  female</tspan><tspan x="0" y="39.6" class="st3 st5">Since childhood Kelly loves ev</tspan><tspan x="204.2" y="39.6" class="st3 st5">-</tspan><tspan x="0" y="57.6" class="st3 st5">erything that gives her an adrena</tspan><tspan x="221.8" y="57.6" class="st3 st5">-</tspan><tspan x="0" y="75.6" class="st3 st5">line rush. If it&apos;s roller coaster, </tspan><tspan x="0" y="93.6" class="st3 st5">hiking in the wilderness or </tspan><tspan x="0" y="111.6" class="st3 st5">bungee jumping. She&apos;s up for </tspan><tspan x="0" y="129.6" class="st3 st5">almost everything. In contrary to </tspan><tspan x="0" y="147.6" class="st3 st5">her adventurous free time she </tspan><tspan x="0" y="165.6" class="st3 st5">loves the quiet and the some</tspan><tspan x="193.4" y="165.6" class="st3 st5">-</tspan><tspan x="0" y="183.6" class="st3 st5">times monotonous work life. This </tspan><tspan x="0" y="201.6" class="st3 st5">gives her enough time to recover </tspan><tspan x="0" y="219.6" class="st3 st5">for the next adventure. To keep </tspan><tspan x="0" y="237.6" class="st3 st5">her in shape she regularly goes </tspan><tspan x="0" y="255.6" class="st3 st5">jogging with her 3 year old dog. </tspan><tspan x="0" y="273.6" class="st3 st5">At first sight you wouldn&apos;t give her </tspan><tspan x="0" y="291.6" class="st3 st5">being so sportive but she&apos;s swift.</tspan></text>
	<rect x="31" y="368" class="st0" width="132" height="128"/>
	<text transform="matrix(1 0 0 1 31 380.96)"><tspan x="0" y="0" class="st3 st4">Intelligence</tspan><tspan x="0" y="36" class="st3 st4">Charisma</tspan><tspan x="0" y="72" class="st3 st4">Athletics </tspan><tspan x="0" y="108" class="st3 st4">Nerd </tspan></text>
	<rect x="97" y="368" class="st0" width="83.5" height="128"/>
	<text transform="matrix(1 0 0 1 170.4922 380.96)"><tspan x="0" y="0" class="st3 st4">1</tspan><tspan x="0" y="36" class="st3 st4">2</tspan><tspan x="0" y="72" class="st3 st4">4</tspan><tspan x="-6" y="108" class="st3 st4">-1</tspan></text>
	<rect x="31" y="319" class="st0" width="272" height="37"/>
	<text transform="matrix(1 0 0 1 31 334.8193)" class="st1 st6">Stats</text>
	<rect x="31" y="520" class="st0" width="243" height="22.5"/>
	<text transform="matrix(1 0 0 1 31 535.8193)"><tspan x="0" y="0" class="st1 st6">Special Trait         </tspan><tspan x="135.2" y="0" class="st3 st4">Dexterity</tspan></text>
</g>
</svg>
