<?xml version="1.0" encoding="utf-8"?>
<!-- Generator: Adobe Illustrator 21.1.0, SVG Export Plug-In . SVG Version: 6.00 Build 0)  -->
<svg version="1.1" xmlns="http://www.w3.org/2000/svg" xmlns:xlink="http://www.w3.org/1999/xlink" x="0px" y="0px"
	 viewBox="0 0 595.3 595.3" style="enable-background:new 0 0 595.3 595.3;" xml:space="preserve">
<style type="text/css">
	.st0{fill:none;}
	.st1{font-family:'Impact';}
	.st2{font-size:40px;}
	.st3{font-family:'Helvetica-Light';}
	.st4{font-size:18px;}
	.st5{font-size:15px;}
	.st6{font-size:20px;}
</style>
<g id="IMG">
	
		<image style="overflow:visible;" width="4185" height="2790" xlink:href="../../img/apprentice.png"  transform="matrix(0.1216 0 0 0.1216 -104 7)">
	</image>
</g>
<g id="Layer_4">
</g>
<g id="Layer_3">
	<rect x="342" y="66" class="st0" width="205" height="94"/>
	<text transform="matrix(1 0 0 1 342 97.6396)"><tspan x="0" y="0" class="st1 st2">Elliot</tspan><tspan x="0" y="21.6" class="st3 st4">Apprentice</tspan></text>
	<rect x="342" y="152.8" class="st0" width="227" height="387"/>
	<text transform="matrix(1 0 0 1 342 165.7933)"><tspan x="0" y="0" class="st3 st4">18 yo  male</tspan><tspan x="0" y="39.6" class="st3 st5">Elliot is passionate about comput</tspan><tspan x="221.7" y="39.6" class="st3 st5">-</tspan><tspan x="0" y="57.6" class="st3 st5">ers. If it were up to him he would </tspan><tspan x="0" y="75.6" class="st3 st5">have done an apprenticeship in </tspan><tspan x="0" y="93.6" class="st3 st5">IT but his parents persuaded him </tspan><tspan x="0" y="111.6" class="st3 st5">to become a baker. Most of his </tspan><tspan x="0" y="129.6" class="st3 st5">freetime is spend on the comput</tspan><tspan x="216.7" y="129.6" class="st3 st5">-</tspan><tspan x="0" y="147.6" class="st3 st5">er playing Fortnite or watching his </tspan><tspan x="0" y="165.6" class="st3 st5">favourite series Mr.Robot. He </tspan><tspan x="0" y="183.6" class="st3 st5">think it is faith that he has the </tspan><tspan x="0" y="201.6" class="st3 st5">same name as the protagonist. </tspan><tspan x="0" y="219.6" class="st3 st5">Although not making his hobby </tspan><tspan x="0" y="237.6" class="st3 st5">into a profession he still loves </tspan><tspan x="0" y="255.6" class="st3 st5">working at the bakery. The work </tspan><tspan x="0" y="273.6" class="st3 st5">atmosphere is great and it feels </tspan><tspan x="0" y="291.6" class="st3 st5">like a second family to him. He </tspan><tspan x="0" y="309.6" class="st3 st5">already opened up a bit and </tspan><tspan x="0" y="327.6" class="st3 st5">even cracks a joke from time to </tspan><tspan x="0" y="345.6" class="st3 st5">time.</tspan></text>
	<rect x="29" y="370" class="st0" width="132" height="128"/>
	<text transform="matrix(1 0 0 1 29 382.9577)"><tspan x="0" y="0" class="st3 st4">Intelligence</tspan><tspan x="0" y="36" class="st3 st4">Charisma</tspan><tspan x="0" y="72" class="st3 st4">Athletics </tspan><tspan x="0" y="108" class="st3 st4">Nerd </tspan></text>
	<rect x="95" y="370" class="st0" width="83.5" height="128"/>
	<text transform="matrix(1 0 0 1 168.4922 382.9577)"><tspan x="0" y="0" class="st3 st4">3</tspan><tspan x="-6" y="36" class="st3 st4">-1</tspan><tspan x="-6" y="72" class="st3 st4">-1</tspan><tspan x="0" y="108" class="st3 st4">5</tspan></text>
	<rect x="29" y="321" class="st0" width="272" height="37"/>
	<text transform="matrix(1 0 0 1 29 336.8171)" class="st1 st6">Stats</text>
	<rect x="29" y="522" class="st0" width="243" height="22.5"/>
	<text transform="matrix(1 0 0 1 29 537.8171)"><tspan x="0" y="0" class="st1 st6">Special Trait         </tspan><tspan x="135.2" y="0" class="st3 st4">Nerd</tspan></text>
</g>
</svg>
