<?xml version="1.0" encoding="utf-8"?>
<!-- Generator: Adobe Illustrator 21.1.0, SVG Export Plug-In . SVG Version: 6.00 Build 0)  -->
<svg version="1.1" xmlns="http://www.w3.org/2000/svg" xmlns:xlink="http://www.w3.org/1999/xlink" x="0px" y="0px"
	 viewBox="0 0 595.3 595.3" style="enable-background:new 0 0 595.3 595.3;" xml:space="preserve">
<style type="text/css">
	.st0{fill:none;}
	.st1{font-family:'Impact';}
	.st2{font-size:40px;}
	.st3{font-family:'Helvetica-Light';}
	.st4{font-size:18px;}
	.st5{font-size:15px;}
	.st6{font-size:20px;}
</style>
<g id="IMG">
	
		<image style="overflow:visible;" width="2584" height="3870" xlink:href="../../img/boss.png"  transform="matrix(0.1227 0 0 0.1227 -5.843 -72.9167)">
	</image>
</g>
<g id="Layer_4">
</g>
<g id="Layer_3">
	<rect x="342" y="66" class="st0" width="205" height="94"/>
	<text transform="matrix(1 0 0 1 342 97.6396)"><tspan x="0" y="0" class="st1 st2">Max</tspan><tspan x="0" y="21.6" class="st3 st4">Boss</tspan></text>
	<rect x="342" y="152.8" class="st0" width="227" height="389.7"/>
	<text transform="matrix(1 0 0 1 342 165.7933)"><tspan x="0" y="0" class="st3 st4">36 yo  male</tspan><tspan x="0" y="39.6" class="st3 st5">Max was raised together with his </tspan><tspan x="0" y="57.6" class="st3 st5">two siblings with much love from </tspan><tspan x="0" y="75.6" class="st3 st5">his parents. He learnt early on to </tspan><tspan x="0" y="93.6" class="st3 st5">help out in the family business </tspan><tspan x="0" y="111.6" class="st3 st5">and never took anything for </tspan><tspan x="0" y="129.6" class="st3 st5">granted. He appreciated all the </tspan><tspan x="0" y="147.6" class="st3 st5">work his parents did for him and </tspan><tspan x="0" y="165.6" class="st3 st5">wished to make them proud. It </tspan><tspan x="0" y="183.6" class="st3 st5">was crystal clear for him that he </tspan><tspan x="0" y="201.6" class="st3 st5">wanted to take over the business. </tspan><tspan x="0" y="219.6" class="st3 st5">Since his two sisters weren&apos;t inter</tspan><tspan x="221.7" y="219.6" class="st3 st5">-</tspan><tspan x="0" y="237.6" class="st3 st5">ested and went to study law and </tspan><tspan x="0" y="255.6" class="st3 st5">mathematics this was never </tspan><tspan x="0" y="273.6" class="st3 st5">questioned. He has a wife and </tspan><tspan x="0" y="291.6" class="st3 st5">two lovely children. At the age of </tspan><tspan x="0" y="309.6" class="st3 st5">34 he took over from his father </tspan><tspan x="0" y="327.6" class="st3 st5">and wants to make his father </tspan><tspan x="0" y="345.6" class="st3 st5">proud by continuing baking the </tspan><tspan x="0" y="363.6" class="st3 st5">best cakes in the world.</tspan></text>
	<rect x="29" y="368" class="st0" width="132" height="128"/>
	<text transform="matrix(1 0 0 1 29 380.96)"><tspan x="0" y="0" class="st3 st4">Intelligence</tspan><tspan x="0" y="36" class="st3 st4">Charisma</tspan><tspan x="0" y="72" class="st3 st4">Athletics </tspan><tspan x="0" y="108" class="st3 st4">Nerd </tspan></text>
	<rect x="95" y="368" class="st0" width="83.5" height="128"/>
	<text transform="matrix(1 0 0 1 168.4922 380.96)"><tspan x="0" y="0" class="st3 st4">3</tspan><tspan x="0" y="36" class="st3 st4">5</tspan><tspan x="-6" y="72" class="st3 st4">-1</tspan><tspan x="-6" y="108" class="st3 st4">-1</tspan></text>
	<rect x="29" y="319" class="st0" width="272" height="37"/>
	<text transform="matrix(1 0 0 1 29 334.8193)" class="st1 st6">Stats</text>
	<rect x="29" y="520" class="st0" width="243" height="22.5"/>
	<text transform="matrix(1 0 0 1 29 535.8193)"><tspan x="0" y="0" class="st1 st6">Special Trait         </tspan><tspan x="135.2" y="0" class="st3 st4">Charisma</tspan></text>
</g>
</svg>
