<?xml version="1.0" encoding="utf-8"?>
<!-- Generator: Adobe Illustrator 24.2.1, SVG Export Plug-In . SVG Version: 6.00 Build 0)  -->
<svg version="1.1" id="Layer_1" xmlns="http://www.w3.org/2000/svg" xmlns:xlink="http://www.w3.org/1999/xlink" x="0px" y="0px"
	 viewBox="0 0 595.3 595.3" style="enable-background:new 0 0 595.3 595.3;" xml:space="preserve">
<style type="text/css">
	.st0{fill:#FFFFFF;}
	.st1{fill:none;}
	.st2{font-family:'Impact';}
	.st3{font-size:40px;}
	.st4{font-family:'Helvetica-Light';}
	.st5{font-size:18px;}
	.st6{font-size:20px;}
	.st7{font-size:15px;}
</style>
<rect id="BG" y="0" class="st0" width="595.3" height="595.3"/>
<g id="IMG">
	
		<image style="overflow:visible;enable-background:new    ;" width="3222" height="4834" xlink:href="../../image/baker.png"  transform="matrix(0.1229 0 0 0.1229 -35.959 -78)">
	</image>
</g>
<g id="Layer_4">
</g>
<g id="Layer_3">
	<rect x="342" y="66" class="st1" width="205" height="94"/>
	<text transform="matrix(1 0 0 1 342 97.6396)" class="st2 st3">Kelly</text>
	<text transform="matrix(1 0 0 1 342 119.2396)" class="st4 st5">Bäckerin</text>
	<polygon class="st1" points="342,160 346,160 346,160 	"/>
	<rect x="31" y="368" class="st1" width="132" height="128"/>
	<text transform="matrix(1 0 0 1 31 380.96)" class="st4 st5">Intelligenz</text>
	<text transform="matrix(1 0 0 1 31 416.96)" class="st4 st5">Charisma</text>
	<text transform="matrix(1 0 0 1 31 452.96)" class="st4 st5">Athletik</text>
	<text transform="matrix(1 0 0 1 31 488.96)" class="st4 st5">Nerd </text>
	<rect x="97" y="368" class="st1" width="83.5" height="128"/>
	<text transform="matrix(1 0 0 1 170.4922 380.96)" class="st4 st5">1</text>
	<text transform="matrix(1 0 0 1 170.4922 416.96)" class="st4 st5">2</text>
	<text transform="matrix(1 0 0 1 170.4922 452.96)" class="st4 st5">4</text>
	<text transform="matrix(1 0 0 1 164.4922 488.96)" class="st4 st5">-1</text>
	<rect x="31" y="319" class="st1" width="272" height="37"/>
	<text transform="matrix(1 0 0 1 31 334.8193)" class="st2 st6">Stats</text>
	<rect x="31" y="520" class="st1" width="243" height="22.5"/>
	<text transform="matrix(1 0 0 1 31 535.8193)" class="st2 st6">Besonderheit         </text>
	<text transform="matrix(1 0 0 1 166.2 535.8193)" class="st4 st5">Geschicklichkeit</text>
	<rect x="342" y="154.2" class="st1" width="224" height="377"/>
	<text transform="matrix(1 0 0 1 342 167.2099)" class="st4 st5">28 Jahre alt</text>
	<rect x="342" y="203.9" class="st1" width="210" height="348"/>
	<text transform="matrix(1 0 0 1 342 214.6898)" class="st4 st7">Seit ihrer Kindheit sucht Kelly </text>
	<text transform="matrix(1 0 0 1 342 232.6898)" class="st4 st7">immer wieder nach einem </text>
	<text transform="matrix(1 0 0 1 342 250.6898)" class="st4 st7">Adrenalinrausch: entweder auf </text>
	<text transform="matrix(1 0 0 1 342 268.6898)" class="st4 st7">Achterbahnen, in der Wildnis</text>
	<text transform="matrix(1 0 0 1 342 286.6898)" class="st4 st7">oder beim Bungee-Jumping. Sie </text>
	<text transform="matrix(1 0 0 1 342 304.6898)" class="st4 st7">würde fast alles machen. Im </text>
	<text transform="matrix(1 0 0 1 342 322.6898)" class="st4 st7">Gegensatz zu ihren abenteuer</text>
	<text transform="matrix(1 0 0 1 545.4 322.6898)" class="st4 st7">-</text>
	<text transform="matrix(1 0 0 1 342 340.6898)" class="st4 st7">lichen Freizeitbeschäftigungen </text>
	<text transform="matrix(1 0 0 1 342 358.6898)" class="st4 st7">liebt sie die Ruhe in der Back</text>
	<text transform="matrix(1 0 0 1 538.7 358.6898)" class="st4 st7">-</text>
	<text transform="matrix(1 0 0 1 342 376.6898)" class="st4 st7">stube, welche ihr genug Zeit </text>
	<text transform="matrix(1 0 0 1 342 394.6898)" class="st4 st7">gibt, um sich für das nächste </text>
	<text transform="matrix(1 0 0 1 342 412.6898)" class="st4 st7">Abenteuer zu erholen. Um sich </text>
	<text transform="matrix(1 0 0 1 342 430.6898)" class="st4 st7">fit zu halten, geht sie jeden </text>
	<text transform="matrix(1 0 0 1 342 448.6898)" class="st4 st7">Tag mit ihrem drei Jahre alten </text>
	<text transform="matrix(1 0 0 1 342 466.6898)" class="st4 st7">Hund joggen. Auf den ersten </text>
	<text transform="matrix(1 0 0 1 342 484.6898)" class="st4 st7">Blick sieht sie nicht sehr stark </text>
	<text transform="matrix(1 0 0 1 342 502.6898)" class="st4 st7">aus, man darf sie wegen ihrer </text>
	<text transform="matrix(1 0 0 1 342 520.6898)" class="st4 st7">Geschicklichkeit aber auf </text>
	<text transform="matrix(1 0 0 1 342 538.6898)" class="st4 st7">keinen Fall unterschätzen.</text>
</g>
</svg>
