<?xml version="1.0" encoding="utf-8"?>
<!-- Generator: Adobe Illustrator 24.2.1, SVG Export Plug-In . SVG Version: 6.00 Build 0)  -->
<svg version="1.1" id="Layer_1" xmlns="http://www.w3.org/2000/svg" xmlns:xlink="http://www.w3.org/1999/xlink" x="0px" y="0px"
	 viewBox="0 0 595.3 595.3" style="enable-background:new 0 0 595.3 595.3;" xml:space="preserve">
<style type="text/css">
	.st0{fill:#FFFFFF;}
	.st1{fill:none;}
	.st2{font-family:'Impact';}
	.st3{font-size:40px;}
	.st4{font-family:'Helvetica-Light';}
	.st5{font-size:18px;}
	.st6{font-size:20px;}
	.st7{font-size:15px;}
</style>
<rect id="BG" x="-0.1" y="0.2" class="st0" width="595.3" height="595.3"/>
<g id="IMG">
	
		<image style="overflow:visible;enable-background:new    ;" width="3383" height="2256" xlink:href="../../image/delivery_guy.png"  transform="matrix(0.1247 0 0 0.1247 28 25)">
	</image>
</g>
<g id="Layer_4">
</g>
<g id="Layer_3">
	<rect x="342" y="66" class="st1" width="205" height="94"/>
	<text transform="matrix(1 0 0 1 342 97.6396)" class="st2 st3">Tom</text>
	<text transform="matrix(1 0 0 1 342 119.2396)" class="st4 st5">Fahrer</text>
	<rect x="31" y="368" class="st1" width="132" height="128"/>
	<text transform="matrix(1 0 0 1 31 380.96)" class="st4 st5">Intelligenz</text>
	<text transform="matrix(1 0 0 1 31 416.96)" class="st4 st5">Charisma</text>
	<text transform="matrix(1 0 0 1 31 452.96)" class="st4 st5">Athletik</text>
	<text transform="matrix(1 0 0 1 31 488.96)" class="st4 st5">Nerd </text>
	<rect x="97" y="368" class="st1" width="83.5" height="128"/>
	<text transform="matrix(1 0 0 1 170.4922 380.96)" class="st4 st5">3</text>
	<text transform="matrix(1 0 0 1 162.9998 416.9597)" class="st4 st5">-2</text>
	<text transform="matrix(1 0 0 1 170.4922 452.96)" class="st4 st5">1</text>
	<text transform="matrix(1 0 0 1 170.4922 488.96)" class="st4 st5">3</text>
	<rect x="31" y="319" class="st1" width="272" height="37"/>
	<text transform="matrix(1 0 0 1 31 334.8193)" class="st2 st6">Stats</text>
	<rect x="31" y="520" class="st1" width="243" height="22.5"/>
	<text transform="matrix(1 0 0 1 31 535.8193)" class="st2 st6">Besonderheit         </text>
	<text transform="matrix(1 0 0 1 166.2 535.8193)" class="st4 st5">Wissen</text>
	<rect x="342" y="151.8" class="st1" width="235" height="432.4"/>
	<text transform="matrix(1 0 0 1 342 164.7649)" class="st4 st5">47 Jahre alt</text>
	<rect x="342" y="198.9" class="st1" width="235" height="375"/>
	<text transform="matrix(1 0 0 1 342 209.6898)" class="st4 st7">Tom ist das neuste Mitglied der </text>
	<text transform="matrix(1 0 0 1 342 227.6898)" class="st4 st7">Bäckerei und ist gerade erst mit </text>
	<text transform="matrix(1 0 0 1 342 245.6898)" class="st4 st7">seiner Freundin und seinen vier </text>
	<text transform="matrix(1 0 0 1 342 263.6898)" class="st4 st7">Katzen in die Stadt gezogen. </text>
	<text transform="matrix(1 0 0 1 342 281.6898)" class="st4 st7">Vorher hatte er für unzählige Un</text>
	<text transform="matrix(1 0 0 1 555.4 281.6898)" class="st4 st7">-</text>
	<text transform="matrix(1 0 0 1 342 299.6898)" class="st4 st7">ternehmen die unterschiedlichsten </text>
	<text transform="matrix(1 0 0 1 342 317.6898)" class="st4 st7">Güter ausgeliefert. Bis jetzt konnte </text>
	<text transform="matrix(1 0 0 1 342 335.6898)" class="st4 st7">er nie lange beim gleichen Job </text>
	<text transform="matrix(1 0 0 1 342 353.6898)" class="st4 st7">bleiben und hofft nun, dass er </text>
	<text transform="matrix(1 0 0 1 342 371.6898)" class="st4 st7">seine Traumstelle gefunden hat. </text>
	<text transform="matrix(1 0 0 1 342 389.6898)" class="st4 st7">Zwischen zwei Lieferungen sieht </text>
	<text transform="matrix(1 0 0 1 342 407.6898)" class="st4 st7">man ihn oft in der Fahrerkabine am </text>
	<text transform="matrix(1 0 0 1 342 425.6898)" class="st4 st7">Bücher lesen während er ein Stück </text>
	<text transform="matrix(1 0 0 1 342 443.6898)" class="st4 st7">des berühmten Kuchens geniesst. </text>
	<text transform="matrix(1 0 0 1 342 461.6898)" class="st4 st7">Seine Arbeitskollegen witzeln, </text>
	<text transform="matrix(1 0 0 1 342 479.6898)" class="st4 st7">dass er alles weiss. Sie haben ihn </text>
	<text transform="matrix(1 0 0 1 342 497.6898)" class="st4 st7">sogar mal gesehen, wie er ein </text>
	<text transform="matrix(1 0 0 1 342 515.6898)" class="st4 st7">Buch über Schlösserknacken ge</text>
	<text transform="matrix(1 0 0 1 560.4 515.6898)" class="st4 st7">-</text>
	<text transform="matrix(1 0 0 1 342 533.6898)" class="st4 st7">lesen hat. Als ob eine so </text>
	<text transform="matrix(1 0 0 1 342 551.6898)" class="st4 st7">friedliche Person jemals ein </text>
	<text transform="matrix(1 0 0 1 342 569.6898)" class="st4 st7">Schloss knacken müsste....</text>
</g>
</svg>
